<mxfile host="app.diagrams.net" modified="2020-10-22T10:24:17.408Z" agent="5.0 (Windows)" etag="nx8q98pjifUbJw81dvQH" version="13.8.1" type="github">
  <diagram id="BMevfkKDMSV5yCwqt1LY" name="Page-1">
    <mxGraphModel dx="1094" dy="763" grid="1" gridSize="10" guides="1" tooltips="1" connect="1" arrows="1" fold="1" page="1" pageScale="1" pageWidth="1920" pageHeight="1200" math="0" shadow="0">
      <root>
        <mxCell id="0" />
        <mxCell id="1" parent="0" />
        <mxCell id="pzT-h00lOB3pdJxOEtcz-1" value="" style="ellipse;html=1;shape=startState;fillColor=#000000;strokeColor=#ff0000;" parent="1" vertex="1">
          <mxGeometry x="145" y="70" width="30" height="30" as="geometry" />
        </mxCell>
        <mxCell id="pzT-h00lOB3pdJxOEtcz-2" value="" style="edgeStyle=orthogonalEdgeStyle;html=1;verticalAlign=bottom;endArrow=open;endSize=8;entryX=0.5;entryY=0;entryDx=0;entryDy=0;" parent="1" source="pzT-h00lOB3pdJxOEtcz-1" target="CKKBYsWl8Wb_sM6-ShsY-4" edge="1">
          <mxGeometry relative="1" as="geometry">
            <mxPoint x="115" y="220" as="targetPoint" />
          </mxGeometry>
        </mxCell>
        <mxCell id="pzT-h00lOB3pdJxOEtcz-5" value="" style="edgeStyle=orthogonalEdgeStyle;rounded=0;orthogonalLoop=1;jettySize=auto;html=1;" parent="1" source="pzT-h00lOB3pdJxOEtcz-3" target="pzT-h00lOB3pdJxOEtcz-4" edge="1">
          <mxGeometry relative="1" as="geometry" />
        </mxCell>
        <mxCell id="pzT-h00lOB3pdJxOEtcz-3" value="&lt;div&gt;申请EKS&lt;/div&gt;" style="rounded=1;whiteSpace=wrap;html=1;" parent="1" vertex="1">
          <mxGeometry x="100" y="200" width="120" height="50" as="geometry" />
        </mxCell>
        <mxCell id="pzT-h00lOB3pdJxOEtcz-7" value="" style="edgeStyle=orthogonalEdgeStyle;rounded=0;orthogonalLoop=1;jettySize=auto;html=1;entryX=0.5;entryY=0;entryDx=0;entryDy=0;" parent="1" source="pzT-h00lOB3pdJxOEtcz-4" target="pzT-h00lOB3pdJxOEtcz-8" edge="1">
          <mxGeometry relative="1" as="geometry" />
        </mxCell>
        <mxCell id="pzT-h00lOB3pdJxOEtcz-4" value="&lt;div&gt;申请VM&lt;/div&gt;" style="whiteSpace=wrap;html=1;rounded=1;" parent="1" vertex="1">
          <mxGeometry x="100" y="298" width="120" height="60" as="geometry" />
        </mxCell>
        <mxCell id="pzT-h00lOB3pdJxOEtcz-9" value="" style="edgeStyle=orthogonalEdgeStyle;rounded=0;orthogonalLoop=1;jettySize=auto;html=1;entryX=0.5;entryY=0;entryDx=0;entryDy=0;exitX=0.5;exitY=1;exitDx=0;exitDy=0;" parent="1" source="pzT-h00lOB3pdJxOEtcz-6" target="pzT-h00lOB3pdJxOEtcz-10" edge="1">
          <mxGeometry relative="1" as="geometry" />
        </mxCell>
        <mxCell id="pzT-h00lOB3pdJxOEtcz-6" value="配置DNS,Nginx" style="whiteSpace=wrap;html=1;rounded=1;" parent="1" vertex="1">
          <mxGeometry x="100" y="517" width="120" height="60" as="geometry" />
        </mxCell>
        <mxCell id="pzT-h00lOB3pdJxOEtcz-11" value="" style="edgeStyle=orthogonalEdgeStyle;rounded=0;orthogonalLoop=1;jettySize=auto;html=1;" parent="1" source="pzT-h00lOB3pdJxOEtcz-8" target="pzT-h00lOB3pdJxOEtcz-6" edge="1">
          <mxGeometry relative="1" as="geometry" />
        </mxCell>
        <mxCell id="pzT-h00lOB3pdJxOEtcz-8" value="&lt;div&gt;部署Application(VM K8S)&lt;/div&gt;" style="whiteSpace=wrap;html=1;rounded=1;" parent="1" vertex="1">
          <mxGeometry x="100" y="407" width="120" height="60" as="geometry" />
        </mxCell>
        <mxCell id="pzT-h00lOB3pdJxOEtcz-13" style="edgeStyle=orthogonalEdgeStyle;rounded=0;orthogonalLoop=1;jettySize=auto;html=1;exitX=0.5;exitY=1;exitDx=0;exitDy=0;entryX=0.5;entryY=0;entryDx=0;entryDy=0;" parent="1" source="pzT-h00lOB3pdJxOEtcz-10" target="pzT-h00lOB3pdJxOEtcz-12" edge="1">
          <mxGeometry relative="1" as="geometry" />
        </mxCell>
        <mxCell id="pzT-h00lOB3pdJxOEtcz-10" value="health check" style="whiteSpace=wrap;html=1;rounded=1;" parent="1" vertex="1">
          <mxGeometry x="100" y="617" width="120" height="60" as="geometry" />
        </mxCell>
        <mxCell id="pzT-h00lOB3pdJxOEtcz-12" value="" style="ellipse;html=1;shape=endState;fillColor=#000000;strokeColor=#ff0000;" parent="1" vertex="1">
          <mxGeometry x="145" y="727" width="30" height="30" as="geometry" />
        </mxCell>
        <mxCell id="pzT-h00lOB3pdJxOEtcz-17" value="返回资源ID" style="text;html=1;align=center;verticalAlign=middle;whiteSpace=wrap;rounded=0;sketch=0;strokeColor=#000000;" parent="1" vertex="1">
          <mxGeometry x="370" y="278" width="150" height="20" as="geometry" />
        </mxCell>
        <mxCell id="pzT-h00lOB3pdJxOEtcz-18" value="" style="endArrow=none;dashed=1;html=1;dashPattern=1 3;strokeWidth=2;entryX=0;entryY=0.5;entryDx=0;entryDy=0;exitX=1;exitY=0.5;exitDx=0;exitDy=0;" parent="1" source="pzT-h00lOB3pdJxOEtcz-4" target="pzT-h00lOB3pdJxOEtcz-17" edge="1">
          <mxGeometry width="50" height="50" relative="1" as="geometry">
            <mxPoint x="430" y="500" as="sourcePoint" />
            <mxPoint x="480" y="450" as="targetPoint" />
          </mxGeometry>
        </mxCell>
        <mxCell id="CKKBYsWl8Wb_sM6-ShsY-1" value="" style="endArrow=none;dashed=1;html=1;dashPattern=1 3;strokeWidth=2;entryX=0;entryY=0.5;entryDx=0;entryDy=0;exitX=1;exitY=0.5;exitDx=0;exitDy=0;" edge="1" parent="1" source="pzT-h00lOB3pdJxOEtcz-3" target="CKKBYsWl8Wb_sM6-ShsY-6">
          <mxGeometry width="50" height="50" relative="1" as="geometry">
            <mxPoint x="220" y="328" as="sourcePoint" />
            <mxPoint x="330" y="295" as="targetPoint" />
          </mxGeometry>
        </mxCell>
        <mxCell id="CKKBYsWl8Wb_sM6-ShsY-2" value="&lt;div align=&quot;left&quot;&gt;从jar打镜像或者从harbor中拉取镜像,估时？&lt;/div&gt;&lt;div align=&quot;left&quot;&gt;&lt;br&gt;&lt;/div&gt;" style="text;html=1;align=left;verticalAlign=middle;whiteSpace=wrap;rounded=0;sketch=0;strokeColor=#000000;" vertex="1" parent="1">
          <mxGeometry x="365" y="358" width="160" height="90" as="geometry" />
        </mxCell>
        <mxCell id="CKKBYsWl8Wb_sM6-ShsY-3" value="" style="endArrow=none;dashed=1;html=1;dashPattern=1 3;strokeWidth=2;entryX=0;entryY=0.5;entryDx=0;entryDy=0;exitX=1;exitY=0.5;exitDx=0;exitDy=0;" edge="1" parent="1" source="pzT-h00lOB3pdJxOEtcz-8" target="CKKBYsWl8Wb_sM6-ShsY-2">
          <mxGeometry width="50" height="50" relative="1" as="geometry">
            <mxPoint x="220" y="328" as="sourcePoint" />
            <mxPoint x="370" y="270" as="targetPoint" />
          </mxGeometry>
        </mxCell>
        <mxCell id="CKKBYsWl8Wb_sM6-ShsY-5" style="edgeStyle=orthogonalEdgeStyle;rounded=0;orthogonalLoop=1;jettySize=auto;html=1;exitX=0.5;exitY=1;exitDx=0;exitDy=0;entryX=0.5;entryY=0;entryDx=0;entryDy=0;strokeColor=#000000;" edge="1" parent="1" source="CKKBYsWl8Wb_sM6-ShsY-4" target="pzT-h00lOB3pdJxOEtcz-3">
          <mxGeometry relative="1" as="geometry" />
        </mxCell>
        <mxCell id="CKKBYsWl8Wb_sM6-ShsY-4" value="申请ECR" style="rounded=1;whiteSpace=wrap;html=1;" vertex="1" parent="1">
          <mxGeometry x="100" y="120" width="120" height="50" as="geometry" />
        </mxCell>
        <mxCell id="CKKBYsWl8Wb_sM6-ShsY-6" value="传入名称" style="text;html=1;align=center;verticalAlign=middle;whiteSpace=wrap;rounded=0;sketch=0;strokeColor=#000000;" vertex="1" parent="1">
          <mxGeometry x="370" y="180" width="150" height="20" as="geometry" />
        </mxCell>
      </root>
    </mxGraphModel>
  </diagram>
</mxfile>
